<svg width="" height="" viewBox="0 0 28 28" fill="" xmlns="http://www.w3.org/2000/svg">
<path d="M18.9658 10.3933L18.8604 10.2891L18.755 10.3933L12.5414 16.5345L9.24399 13.2759L9.13855 13.1717L9.03312 13.2759L8.06107 14.2365L7.95311 14.3432L8.06107 14.4499L12.436 18.7734L12.5414 18.8776L12.6469 18.7734L19.9386 11.5673L20.0466 11.4606L19.9386 11.3539L18.9658 10.3933Z" fill="" stroke="" stroke-width="0.3"/>
<path d="M13.9999 25.6663C7.55642 25.6663 2.33325 20.4432 2.33325 13.9997C2.33325 7.55618 7.55642 2.33301 13.9999 2.33301C20.4434 2.33301 25.6666 7.55618 25.6666 13.9997C25.6666 20.4432 20.4434 25.6663 13.9999 25.6663ZM13.9999 23.333C16.4753 23.333 18.8492 22.3497 20.5996 20.5993C22.3499 18.849 23.3333 16.475 23.3333 13.9997C23.3333 11.5243 22.3499 9.15035 20.5996 7.40001C18.8492 5.64967 16.4753 4.66634 13.9999 4.66634C11.5246 4.66634 9.1506 5.64967 7.40026 7.40001C5.64992 9.15035 4.66659 11.5243 4.66659 13.9997C4.66659 16.475 5.64992 18.849 7.40026 20.5993C9.1506 22.3497 11.5246 23.333 13.9999 23.333Z" fill=""/>
</svg>
