<svg width="" height="" viewBox="0 0 28 28" fill="" xmlns="http://www.w3.org/2000/svg">
<path d="M15.0104 3.50027L26.124 22.7503C26.2264 22.9276 26.2803 23.1288 26.2803 23.3336C26.2803 23.5384 26.2264 23.7396 26.124 23.9169C26.0216 24.0943 25.8744 24.2416 25.697 24.344C25.5197 24.4464 25.3185 24.5003 25.1137 24.5003H2.88636C2.68157 24.5003 2.48039 24.4464 2.30304 24.344C2.12569 24.2416 1.97842 24.0943 1.87602 23.9169C1.77363 23.7396 1.71973 23.5384 1.71973 23.3336C1.71973 23.1288 1.77364 22.9276 1.87603 22.7503L12.9897 3.50027C13.0921 3.32293 13.2394 3.17567 13.4167 3.07328C13.5941 2.97089 13.7952 2.91699 14 2.91699C14.2048 2.91699 14.406 2.97089 14.5833 3.07328C14.7607 3.17567 14.908 3.32293 15.0104 3.50027ZM4.90703 22.1669H23.093L14 6.41694L4.90703 22.1669ZM12.8334 18.6669H15.1667V21.0003H12.8334V18.6669ZM12.8334 10.5003H15.1667V16.3336H12.8334V10.5003Z" fill=""/>
</svg>
