<svg width="" height="" viewBox="0 0 28 28" fill="" xmlns="http://www.w3.org/2000/svg">
<g clip-path="url(#clip0_1407_11207)">
<path d="M2.33337 4.66667C2.33337 4.35725 2.45629 4.0605 2.67508 3.84171C2.89388 3.62292 3.19062 3.5 3.50004 3.5H24.5C24.8095 3.5 25.1062 3.62292 25.325 3.84171C25.5438 4.0605 25.6667 4.35725 25.6667 4.66667V11.0833C24.8932 11.0833 24.1513 11.3906 23.6043 11.9376C23.0573 12.4846 22.75 13.2265 22.75 14C22.75 14.7735 23.0573 15.5154 23.6043 16.0624C24.1513 16.6094 24.8932 16.9167 25.6667 16.9167V23.3333C25.6667 23.6428 25.5438 23.9395 25.325 24.1583C25.1062 24.3771 24.8095 24.5 24.5 24.5H3.50004C3.19062 24.5 2.89388 24.3771 2.67508 24.1583C2.45629 23.9395 2.33337 23.6428 2.33337 23.3333V4.66667ZM9.43254 22.1667C9.55279 21.8248 9.77618 21.5288 10.0719 21.3193C10.3676 21.1099 10.721 20.9974 11.0834 20.9974C11.4457 20.9974 11.7992 21.1099 12.0949 21.3193C12.3906 21.5288 12.614 21.8248 12.7342 22.1667H23.3334V18.704C22.457 18.2697 21.7193 17.5991 21.2036 16.768C20.6879 15.9368 20.4147 14.9781 20.4147 14C20.4147 13.0219 20.6879 12.0632 21.2036 11.232C21.7193 10.4009 22.457 9.73034 23.3334 9.296V5.83333H12.7342C12.614 6.17516 12.3906 6.47123 12.0949 6.68067C11.7992 6.89012 11.4457 7.0026 11.0834 7.0026C10.721 7.0026 10.3676 6.89012 10.0719 6.68067C9.77618 6.47123 9.55279 6.17516 9.43254 5.83333H4.66671V22.1667H9.43254ZM11.0834 12.8333C10.6192 12.8333 10.1741 12.649 9.84594 12.3208C9.51775 11.9926 9.33337 11.5475 9.33337 11.0833C9.33337 10.6192 9.51775 10.1741 9.84594 9.8459C10.1741 9.51771 10.6192 9.33333 11.0834 9.33333C11.5475 9.33333 11.9926 9.51771 12.3208 9.8459C12.649 10.1741 12.8334 10.6192 12.8334 11.0833C12.8334 11.5475 12.649 11.9926 12.3208 12.3208C11.9926 12.649 11.5475 12.8333 11.0834 12.8333ZM11.0834 18.6667C10.6192 18.6667 10.1741 18.4823 9.84594 18.1541C9.51775 17.8259 9.33337 17.3808 9.33337 16.9167C9.33337 16.4525 9.51775 16.0074 9.84594 15.6792C10.1741 15.351 10.6192 15.1667 11.0834 15.1667C11.5475 15.1667 11.9926 15.351 12.3208 15.6792C12.649 16.0074 12.8334 16.4525 12.8334 16.9167C12.8334 17.3808 12.649 17.8259 12.3208 18.1541C11.9926 18.4823 11.5475 18.6667 11.0834 18.6667Z" fill=""/>
</g>
<defs>
<clipPath id="clip0_1407_11207">
<rect width="28" height="28" fill=""/>
</clipPath>
</defs>
</svg>
