<svg width="" height="" viewBox="0 0 24 24" fill="" xmlns="http://www.w3.org/2000/svg">
<path d="M16.9504 8.46392C17.1326 8.27531 17.2334 8.02271 17.2311 7.76052C17.2288 7.49832 17.1236 7.24751 16.9382 7.0621C16.7528 6.87669 16.502 6.77152 16.2398 6.76924C15.9776 6.76696 15.725 6.86776 15.5364 7.04992L12.0004 10.5859L8.46441 7.04992C8.37216 6.95441 8.26181 6.87822 8.13981 6.82582C8.01781 6.77341 7.88659 6.74582 7.75381 6.74467C7.62103 6.74351 7.48935 6.76881 7.36645 6.8191C7.24355 6.86938 7.1319 6.94363 7.03801 7.03752C6.94412 7.13141 6.86986 7.24307 6.81958 7.36596C6.7693 7.48886 6.744 7.62054 6.74515 7.75332C6.74631 7.8861 6.7739 8.01732 6.8263 8.13932C6.87871 8.26133 6.9549 8.37167 7.05041 8.46392L10.5864 11.9999L7.05041 15.5359C6.9549 15.6282 6.87871 15.7385 6.8263 15.8605C6.7739 15.9825 6.74631 16.1137 6.74515 16.2465C6.744 16.3793 6.7693 16.511 6.81958 16.6339C6.86986 16.7568 6.94412 16.8684 7.03801 16.9623C7.1319 17.0562 7.24355 17.1305 7.36645 17.1807C7.48935 17.231 7.62103 17.2563 7.75381 17.2552C7.88659 17.254 8.01781 17.2264 8.13981 17.174C8.26181 17.1216 8.37216 17.0454 8.46441 16.9499L12.0004 13.4139L15.5364 16.9499C15.6287 17.0454 15.739 17.1216 15.861 17.174C15.983 17.2264 16.1142 17.254 16.247 17.2552C16.3798 17.2563 16.5115 17.231 16.6344 17.1807C16.7573 17.1305 16.8689 17.0562 16.9628 16.9623C17.0567 16.8684 17.1309 16.7568 17.1812 16.6339C17.2315 16.511 17.2568 16.3793 17.2557 16.2465C17.2545 16.1137 17.2269 15.9825 17.1745 15.8605C17.1221 15.7385 17.0459 15.6282 16.9504 15.5359L13.4144 11.9999L16.9504 8.46392Z" fill=""/>
</svg>
